<svg width="19" height="25" viewBox="0 0 19 25" fill="none" xmlns="http://www.w3.org/2000/svg">
<path d="M9.41665 0.301575C5.94849 0.301575 3.12258 3.15112 3.12258 6.65057V10.0228C1.70737 11.5657 0.833008 13.6199 0.833008 15.8832C0.833008 20.6552 4.68427 24.5409 9.41665 24.5409C14.149 24.5409 18.0025 20.6552 18.0025 15.8832C18.0025 13.6199 17.1282 11.5657 15.713 10.0228V6.65057C15.713 3.15112 12.8871 0.301575 9.41665 0.301575ZM9.41665 1.45594C12.2696 1.45594 14.5682 3.77375 14.5682 6.65057V8.9752C13.1304 7.88219 11.3502 7.22548 9.41665 7.22548C7.48313 7.22548 5.70285 7.88219 4.26511 8.9752V6.65057C4.26511 3.77375 6.5637 1.45594 9.41665 1.45594ZM9.41665 14.1517C10.3654 14.1517 11.1338 14.9265 11.1338 15.8832C11.1338 16.6354 10.6561 17.2671 9.98904 17.5057V18.7691C9.98904 19.0872 9.73214 19.3463 9.41665 19.3463C9.10116 19.3463 8.84426 19.0872 8.84426 18.7691V17.5057C8.17947 17.2671 7.69947 16.6354 7.69947 15.8832C7.69947 14.9265 8.47017 14.1517 9.41665 14.1517Z" fill="#EA3838"/>
</svg>
