<svg width="51" height="72" viewBox="0 0 51 72" fill="none" xmlns="http://www.w3.org/2000/svg">
<path d="M25.4967 0C15.1949 0 6.80089 8.46424 6.80089 18.8589V28.8756C2.59719 33.4587 0 39.5605 0 46.2833C0 60.4579 11.4397 72 25.4967 72C39.5536 72 51 60.4579 51 46.2833C51 32.1087 39.5536 20.5666 25.4967 20.5666C19.7534 20.5666 14.4653 22.5173 10.1946 25.7639V18.8589C10.1946 10.3137 17.0223 3.42889 25.4967 3.42889C32.9468 3.42889 39.1453 8.77473 40.5309 15.8553C40.5711 16.5235 41.0062 17.1107 41.622 17.347C42.2445 17.59 42.9474 17.4415 43.4226 16.969C43.8979 16.4965 44.0518 15.7878 43.8243 15.16C42.124 6.50005 34.5601 0 25.4967 0ZM25.4967 41.14C28.3147 41.14 30.5973 43.4416 30.5973 46.2833C30.5973 48.5175 29.1782 50.3939 27.1969 51.1027V54.8555C27.1969 55.8005 26.4338 56.57 25.4967 56.57C24.5595 56.57 23.7964 55.8005 23.7964 54.8555V51.1027C21.8218 50.3939 20.396 48.5175 20.396 46.2833C20.396 43.4416 22.6853 41.14 25.4967 41.14Z" fill="#25C96A"/>
</svg>
