<svg width="51" height="72" viewBox="0.5 11 18 3" fill="none" xmlns="http://www.w3.org/2000/svg">
<path d="M9.41665 0.0157986C5.94849 0.0157986 3.12258 2.87458 3.12258 6.38537V9.76848C1.70737 11.3164 0.833008 13.3773 0.833008 15.6479C0.833008 20.4353 4.68427 24.3337 9.41665 24.3337C14.149 24.3337 18.0025 20.4353 18.0025 15.6479C18.0025 13.3773 17.1282 11.3164 15.713 9.76848V6.38537C15.713 2.87458 12.8871 0.0157986 9.41665 0.0157986ZM9.41665 1.1739C12.2696 1.1739 14.5682 3.49923 14.5682 6.38537V8.71753C13.1304 7.62098 11.3502 6.96214 9.41665 6.96214C7.48313 6.96214 5.70285 7.62098 4.26511 8.71753V6.38537C4.26511 3.49923 6.5637 1.1739 9.41665 1.1739ZM9.41665 13.9108C10.3654 13.9108 11.1338 14.6881 11.1338 15.6479C11.1338 16.4025 10.6561 17.0363 9.98904 17.2756V18.5432C9.98904 18.8623 9.73214 19.1222 9.41665 19.1222C9.10116 19.1222 8.84426 18.8623 8.84426 18.5432V17.2756C8.17947 17.0363 7.69947 16.4025 7.69947 15.6479C7.69947 14.6881 8.47017 13.9108 9.41665 13.9108Z" fill="#EA3838"/>
</svg>
