<svg width="21" height="32" viewBox="0 0 21 32" fill="none" xmlns="http://www.w3.org/2000/svg">
<path d="M2.62507 0H18.375C19.8227 0 21 1.19593 21 2.66668V8.66666C21 9.03516 20.7065 9.33335 20.3437 9.33335H0.656327C0.293587 9.33335 6.00812e-05 9.03516 6.00812e-05 8.66666V2.66668C6.00812e-05 1.19593 1.17737 0 2.62507 0ZM13.7812 6.66667H17.7187C17.9841 6.66667 18.2237 6.50454 18.325 6.25523C18.4269 6.00586 18.3705 5.71942 18.1827 5.52867L17.5264 4.86198C17.27 4.60155 16.8548 4.60155 16.5984 4.86198C16.4703 4.99217 16.4062 5.1628 16.4062 5.33336H13.7812C13.4184 5.33336 13.1249 5.63155 13.1249 6.00004C13.1249 6.36854 13.4185 6.66667 13.7812 6.66667Z" fill="#BCBCBC"/>
<path d="M0.656328 10.6667H20.3437C20.7065 10.6667 21 10.9649 21 11.3334V28C21 29.4706 19.8228 30.6666 18.375 30.6666V31.3333C18.375 31.7018 18.0815 32 17.7187 32H16.4063C16.0435 32 15.75 31.7018 15.75 31.3333V30.6666H5.25001V31.3333C5.25001 31.7018 4.95649 32 4.59375 32H3.28127C2.91853 32 2.62501 31.7018 2.62501 31.3333V30.6666C1.17731 30.6666 0 29.4707 0 28V11.3333C6.14467e-05 10.9649 0.293588 10.6667 0.656328 10.6667ZM13.7812 14.6667H17.7187C17.9841 14.6667 18.2237 14.5046 18.325 14.2552C18.4269 14.0059 18.3705 13.7194 18.1827 13.5287L17.5264 12.862C17.27 12.6016 16.8548 12.6016 16.5984 12.862C16.4703 12.9922 16.4062 13.1628 16.4062 13.3334H13.7812C13.4184 13.3334 13.1249 13.6316 13.1249 14.0001C13.1249 14.3686 13.4185 14.6667 13.7812 14.6667Z" fill="#BCBCBC"/>
</svg>
