<svg width="23" height="21" viewBox="0 0 23 21" fill="none" xmlns="http://www.w3.org/2000/svg">
<path d="M21.7272 9.37875L11.8565 0.834352C11.4232 0.459255 10.7699 0.459296 10.3368 0.834311L0.466126 9.37879C0.119068 9.67922 0.00442797 10.1421 0.173982 10.558C0.343579 10.974 0.756507 11.2427 1.22603 11.2427H2.80254V19.8035C2.80254 20.1429 3.09224 20.4182 3.44952 20.4182H8.85987C9.21715 20.4182 9.50685 20.143 9.50685 19.8035V14.6056H12.6866V19.8036C12.6866 20.143 12.9763 20.4182 13.3336 20.4182H18.7437C19.101 20.4182 19.3907 20.143 19.3907 19.8036V11.2427H20.9675C21.437 11.2427 21.8499 10.9739 22.0195 10.558C22.1889 10.1421 22.0742 9.67922 21.7272 9.37875Z" fill="white"/>
</svg>
