<svg width="14" height="22" viewBox="0 0 14 22" fill="none" xmlns="http://www.w3.org/2000/svg">
<path d="M6.37764 22V20.3028C4.66358 20.1762 3.29148 19.6569 2.26135 18.745C1.22278 17.833 0.69927 16.672 0.690826 15.2619H2.85663C2.92418 16.1063 3.26615 16.7987 3.88254 17.3391C4.49892 17.8795 5.33063 18.213 6.37764 18.3397V11.7536L5.3644 11.475C4.00497 11.1203 2.96218 10.5377 2.23602 9.72712C1.50142 8.91652 1.13412 7.92439 1.13412 6.75072C1.13412 5.36596 1.60274 4.23028 2.53999 3.3437C3.47724 2.45711 4.75646 1.9336 6.37764 1.77317V0H8.07482V1.76051C9.65379 1.89561 10.9288 2.41489 11.8998 3.31837C12.8624 4.22184 13.3648 5.35751 13.407 6.72539H11.2539C11.2285 5.94013 10.9288 5.27308 10.3546 4.72424C9.772 4.16695 9.01207 3.83343 8.07482 3.72366V9.9171L9.15139 10.1831C12.1996 10.9937 13.7236 12.6317 13.7236 15.0973C13.7236 16.5918 13.2255 17.795 12.2291 18.707C11.2412 19.6189 9.85644 20.1466 8.07482 20.2902V22H6.37764ZM11.5325 15.2746C11.5325 13.645 10.3799 12.5853 8.07482 12.0956V18.3777C9.1725 18.3186 10.0253 18.0188 10.6333 17.4784C11.2328 16.938 11.5325 16.2034 11.5325 15.2746ZM3.31259 6.62406C3.31259 8.14393 4.33427 9.11917 6.37764 9.5498V3.72366C5.49106 3.77432 4.76068 4.06985 4.18651 4.61025C3.60389 5.15909 3.31259 5.83036 3.31259 6.62406Z" fill="white"/>
</svg>
