<svg width="32" height="32" viewBox="0 0 32 32" fill="none" xmlns="http://www.w3.org/2000/svg">
<path d="M16 15C17.1046 15 18 14.1046 18 13C18 11.8954 17.1046 11 16 11C14.8954 11 14 11.8954 14 13C14 14.1046 14.8954 15 16 15Z" fill="#BCBCBC"/>
<path d="M25.125 5.5H6.875C6.3925 5.5 6 5.8925 6 6.375V25.625C6 26.1075 6.3925 26.5 6.875 26.5H25.125C25.6075 26.5 26 26.1075 26 25.625V6.375C26 5.8925 25.6075 5.5 25.125 5.5ZM10.5 21C10.5 21.5522 10.0523 22 9.5 22C8.94769 22 8.5 21.5522 8.5 21V17C8.5 16.4478 8.94769 16 9.5 16C10.0523 16 10.5 16.4478 10.5 17V21ZM16 17C13.7944 17 12 15.2056 12 13C12 10.7944 13.7944 9 16 9C18.2056 9 20 10.7944 20 13C20 15.2056 18.2056 17 16 17Z" fill="#BCBCBC"/>
<path d="M31.1875 15H28.3125C28.1399 15 28 15.1399 28 15.3125V16.6875C28 16.8601 28.1399 17 28.3125 17H31.1875C31.3601 17 31.5 16.8601 31.5 16.6875V15.3125C31.5 15.1399 31.3601 15 31.1875 15Z" fill="#BCBCBC"/>
<path d="M28.3125 13H31.1875C31.3601 13 31.5 12.8601 31.5 12.6875V10.3125C31.5 10.1399 31.3601 10 31.1875 10H28.3125C28.1399 10 28 10.1399 28 10.3125V12.6875C28 12.8601 28.1399 13 28.3125 13Z" fill="#BCBCBC"/>
<path d="M28 24.3125V25.625C28 27.2128 26.7128 28.5 25.125 28.5H6.875C5.28719 28.5 4 27.2128 4 25.625V6.375C4 4.78719 5.28719 3.5 6.875 3.5H25.125C26.7128 3.5 28 4.78719 28 6.375V7.6875C28 7.86006 28.1399 8 28.3125 8H31.1875C31.3601 8 31.5 7.86006 31.5 7.6875V2.875C31.5 1.28719 30.2128 0 28.625 0H3.375C1.78719 0 0.5 1.28719 0.5 2.875V29.125C0.5 30.7128 1.78719 32 3.375 32H28.625C30.2128 32 31.5 30.7128 31.5 29.125V24.3125C31.5 24.1399 31.3601 24 31.1875 24H28.3125C28.1399 24 28 24.1399 28 24.3125Z" fill="#BCBCBC"/>
<path d="M31.1875 19H28.3125C28.1399 19 28 19.1399 28 19.3125V21.6875C28 21.8601 28.1399 22 28.3125 22H31.1875C31.3601 22 31.5 21.8601 31.5 21.6875V19.3125C31.5 19.1399 31.3601 19 31.1875 19Z" fill="#BCBCBC"/>
</svg>
