<svg width="16" height="23" viewBox="0 0 16 23" fill="none" xmlns="http://www.w3.org/2000/svg">
<path d="M7.99008 0C4.44129 0 1.55402 2.88715 1.55402 6.43606V10.1119C1.55402 10.1536 1.50248 10.224 1.46199 10.2375C1.11395 10.3535 0.831287 10.4541 0.572541 10.5538C0.263978 10.6728 0.03125 11.0148 0.03125 11.3493V19.7952C0.03125 20.1275 0.262475 20.4697 0.569082 20.5913C2.94137 21.5313 5.43815 22.0079 7.99004 22.0079C10.5419 22.0079 13.0387 21.5312 15.4111 20.5911C15.7176 20.4697 15.9487 20.1275 15.9487 19.7952V11.3493C15.9487 11.0148 15.716 10.6728 15.4073 10.5537C15.1485 10.454 14.8658 10.3534 14.5181 10.2374C14.4777 10.2239 14.4261 10.1535 14.4261 10.1117V6.43594C14.4259 2.88715 11.5389 0 7.99008 0ZM6.23706 13.9216C6.23706 12.9528 7.02191 12.1688 7.98997 12.1688C8.95795 12.1688 9.7428 12.9527 9.7428 13.9216C9.7428 14.5636 9.38077 15.1011 8.86636 15.4058V18.3039C8.86636 18.7883 8.47437 19.1803 7.98993 19.1803C7.50545 19.1803 7.11349 18.7883 7.11349 18.3039V15.4058C6.59912 15.1011 6.23706 14.5636 6.23706 13.9216ZM12.2131 6.43594V9.60748C10.8282 9.30948 9.40743 9.15857 7.99064 9.15845C6.5745 9.15845 5.15402 9.30941 3.76701 9.60714V6.43594C3.76701 4.10734 5.6614 2.21299 7.98997 2.21299C10.3185 2.21295 12.2131 4.10734 12.2131 6.43594Z" fill="white"/>
</svg>
