<svg width="19" height="26" viewBox="0 0 19 26" fill="none" xmlns="http://www.w3.org/2000/svg">
<path d="M9.41639 0.817627C5.87553 0.817627 2.99039 3.70266 2.99039 7.24568V10.6599C1.54552 12.222 0.652832 14.3018 0.652832 16.5933C0.652832 21.4247 4.58481 25.3588 9.41639 25.3588C14.248 25.3588 18.1822 21.4247 18.1822 16.5933C18.1822 11.7619 14.248 7.82775 9.41639 7.82775C7.44234 7.82775 5.62475 8.49264 4.15687 9.59926V7.24568C4.15687 4.33304 6.50364 1.98636 9.41639 1.98636C11.9771 1.98636 14.1076 3.80849 14.5839 6.22189C14.5977 6.44965 14.7472 6.64981 14.9589 6.73033C15.1729 6.81316 15.4144 6.76254 15.5778 6.6015C15.7411 6.44045 15.7941 6.19888 15.7158 5.98492C15.1314 3.03317 12.5316 0.817627 9.41639 0.817627ZM9.41639 14.8402C10.385 14.8402 11.1696 15.6247 11.1696 16.5933C11.1696 17.3548 10.6818 17.9944 10.0008 18.2359V19.5151C10.0008 19.8372 9.73849 20.0995 9.41639 20.0995C9.09428 20.0995 8.832 19.8372 8.832 19.5151V18.2359C8.15328 17.9944 7.66322 17.3548 7.66322 16.5933C7.66322 15.6247 8.45007 14.8402 9.41639 14.8402Z" fill="#25C96A"/>
</svg>
